<?xml version="1.0" standalone="no"?>
<!DOCTYPE svg PUBLIC "-//W3C//DTD SVG 20010904//EN"
 "http://www.w3.org/TR/2001/REC-SVG-20010904/DTD/svg10.dtd">
<svg version="1.0" xmlns="http://www.w3.org/2000/svg"
 width="217.000000pt" height="227.000000pt" viewBox="0 0 217.000000 227.000000"
 preserveAspectRatio="xMidYMid meet">

<g transform="translate(0.000000,227.000000) scale(0.100000,-0.100000)"
fill="#000000" stroke="none">
<path d="M588 1838 l-3 -373 -32 -3 c-29 -3 -33 -7 -33 -32 0 -25 -4 -29 -32
-32 l-33 -3 -3 -67 c-3 -68 -3 -68 -32 -68 l-30 0 0 -64 0 -65 -32 -3 -33 -3
-5 -135 -5 -135 -30 0 -30 -1 -3 -102 -3 -102 -29 0 -30 0 0 -170 0 -170 30 0
c27 0 30 -3 30 -30 l0 -30 70 0 70 0 0 30 c0 27 3 30 30 30 29 0 29 0 32 67
l3 68 32 3 32 3 3 67 c3 66 3 66 33 67 26 0 30 4 33 33 3 29 6 32 38 32 32 0
34 -2 34 -36 l0 -35 63 2 62 3 3 -32 c3 -27 7 -31 35 -34 l32 -3 3 -202 2
-202 32 -3 c28 -3 32 -7 33 -33 l0 -30 100 0 100 0 3 33 c3 28 7 32 33 32 l29
0 0 100 0 100 35 0 35 0 0 70 0 70 99 0 100 0 3 33 3 32 100 0 100 0 0 -30 c1
-26 5 -30 32 -33 28 -3 32 -7 35 -35 3 -28 7 -32 36 -35 29 -3 32 -6 32 -38
l0 -34 70 0 70 0 -5 -30 -5 -30 70 0 70 0 0 29 c0 26 4 30 33 33 l32 3 0 65 0
65 -32 3 -33 3 0 64 0 64 -32 3 -33 3 -3 68 -3 67 -34 0 -34 0 -3 68 c-3 67
-3 67 -30 64 -26 -3 -28 -1 -28 32 0 32 3 35 33 38 30 3 32 5 29 36 -3 31 -2
32 32 32 l36 0 0 234 0 235 -32 3 -33 3 -3 238 -2 238 -98 -3 -97 -3 -3 -32
c-3 -28 -7 -32 -35 -35 -27 -3 -31 -7 -32 -33 l0 -30 -134 0 -134 0 -1 65 -1
65 -32 3 c-29 3 -33 7 -33 33 l0 29 -100 0 -100 0 0 -30 c0 -28 -3 -30 -35
-30 l-35 0 0 -70 0 -70 -35 0 -35 0 0 -136 0 -135 -32 3 -33 3 -3 133 -3 132
-29 0 -30 0 0 135 0 135 -35 0 -35 0 0 70 0 70 -100 0 -100 0 -2 -372z m872
-479 l0 -100 -32 3 c-18 2 -32 6 -30 11 1 4 2 48 2 97 l0 90 30 0 30 0 0 -101z
m340 1 l0 -100 -35 0 -35 0 0 100 0 100 35 0 35 0 0 -100z"/>
</g>
</svg>
