<?xml version="1.0" standalone="no"?>
<!DOCTYPE svg PUBLIC "-//W3C//DTD SVG 20010904//EN"
 "http://www.w3.org/TR/2001/REC-SVG-20010904/DTD/svg10.dtd">
<svg version="1.0" xmlns="http://www.w3.org/2000/svg"
 width="2400.000000pt" height="2400.000000pt" viewBox="0 0 2400.000000 2400.000000"
 preserveAspectRatio="xMidYMid meet">

<g transform="translate(0.000000,2400.000000) scale(0.100000,-0.100000)"
fill="#000000" stroke="none">
<path d="M15643 20238 c-8 -13 -14 -14 -198 -21 -60 -2 -123 -9 -138 -16 -21
-8 -34 -8 -49 0 -23 12 -64 5 -84 -16 -9 -9 -26 -12 -49 -8 -21 3 -41 1 -50
-7 -9 -7 -27 -10 -44 -7 -19 4 -33 1 -41 -8 -8 -10 -26 -13 -56 -10 -49 5
-130 -9 -152 -27 -7 -6 -28 -13 -45 -15 -46 -4 -117 -26 -117 -35 0 -4 -11 -8
-24 -8 -13 0 -35 -9 -49 -20 -22 -18 -26 -18 -31 -4 -4 11 -12 14 -24 9 -9 -4
-22 -8 -29 -9 -7 -1 -16 -5 -19 -9 -4 -4 -14 -7 -22 -7 -8 0 -28 -11 -44 -25
-18 -15 -40 -24 -56 -23 -26 1 -126 -44 -138 -63 -3 -5 -16 -9 -29 -9 -13 0
-27 -5 -30 -11 -4 -5 -17 -14 -28 -20 -12 -5 -29 -13 -37 -18 -8 -5 -34 -18
-58 -28 -27 -11 -44 -26 -48 -40 -5 -17 -14 -23 -35 -23 -22 0 -32 -6 -39 -24
-5 -13 -22 -28 -39 -34 -16 -6 -34 -20 -41 -31 -6 -12 -20 -21 -32 -21 -29 0
-128 -98 -128 -127 0 -14 -13 -29 -42 -46 -24 -14 -52 -41 -62 -61 -11 -20
-22 -36 -26 -36 -4 0 -11 -15 -15 -32 -4 -18 -9 -27 -12 -20 -7 19 -43 -36
-43 -65 0 -12 -8 -28 -17 -35 -26 -19 -43 -54 -43 -86 0 -36 -9 -45 -28 -29
-13 10 -15 8 -9 -13 4 -16 1 -30 -10 -42 -13 -14 -14 -23 -5 -42 9 -21 8 -27
-12 -40 -20 -12 -23 -24 -24 -70 0 -30 -7 -69 -15 -88 -25 -56 -27 -69 -16
-90 8 -16 8 -22 -2 -29 -12 -7 -13 -53 -7 -274 0 -11 4 -31 9 -45 5 -14 13
-62 18 -107 10 -79 21 -111 48 -141 16 -17 27 -58 19 -71 -4 -5 -1 -13 6 -18
18 -11 41 -104 29 -116 -5 -5 -15 -6 -22 -1 -8 4 -20 9 -29 11 -67 11 -127 30
-136 42 -8 10 -21 12 -42 8 -17 -4 -34 -3 -36 2 -3 5 -24 11 -47 15 -23 4 -47
10 -53 13 -6 4 -26 6 -44 4 -21 -2 -41 4 -52 14 -12 11 -26 14 -40 10 -12 -4
-35 0 -56 10 -18 9 -62 18 -96 20 -35 2 -74 6 -88 9 -14 3 -47 10 -75 16 -27
6 -69 8 -92 5 -25 -4 -44 -2 -48 5 -4 7 -19 9 -36 5 -17 -4 -29 -2 -29 3 0 6
-38 13 -85 17 -47 4 -88 11 -90 16 -6 8 -63 4 -73 -5 -3 -4 -16 1 -30 10 -15
10 -35 14 -52 11 -15 -3 -53 0 -86 8 -42 10 -62 10 -72 3 -9 -8 -19 -8 -35 0
-38 18 -78 23 -92 12 -10 -8 -19 -8 -34 -1 -11 6 -48 11 -83 11 -35 0 -80 4
-101 9 -23 6 -39 5 -43 -1 -4 -6 -19 -7 -35 -4 -15 3 -29 1 -31 -5 -2 -6 -23
-13 -46 -16 -38 -5 -44 -3 -49 16 -5 21 -14 26 -27 14 -10 -10 -49 -11 -68 -2
-10 6 -19 5 -23 -1 -7 -11 -85 -8 -104 4 -10 7 -66 -6 -101 -24 -8 -4 -30 0
-47 8 -25 12 -38 13 -55 5 -13 -7 -50 -12 -83 -13 -156 -3 -186 -6 -193 -15
-7 -11 -28 -13 -149 -15 -40 0 -75 -5 -78 -10 -3 -5 -19 -7 -35 -4 -20 4 -34
1 -45 -10 -10 -10 -26 -13 -43 -10 -28 5 -60 -1 -167 -32 -33 -9 -71 -17 -85
-16 -14 0 -61 -8 -106 -19 -44 -11 -97 -21 -116 -23 -20 -2 -52 -13 -71 -25
-19 -12 -42 -18 -51 -15 -12 5 -16 0 -16 -17 -1 -22 -2 -23 -14 -6 -15 19 -52
16 -91 -9 -11 -7 -37 -16 -58 -19 -20 -4 -41 -13 -45 -19 -4 -7 -37 -22 -74
-34 -36 -13 -87 -34 -113 -47 -25 -14 -55 -25 -66 -25 -11 0 -22 -6 -25 -14
-3 -8 -19 -18 -34 -21 -16 -4 -41 -16 -56 -27 -14 -12 -41 -22 -60 -23 -38 -3
-95 -28 -140 -62 -17 -12 -35 -23 -41 -23 -5 0 -18 -9 -28 -20 -10 -11 -26
-20 -35 -20 -10 0 -20 -7 -24 -15 -3 -8 -26 -25 -51 -37 -25 -12 -45 -26 -45
-30 0 -4 -9 -8 -21 -8 -12 0 -34 -13 -49 -30 -15 -16 -33 -30 -40 -30 -6 0
-25 -13 -42 -30 -24 -24 -38 -30 -73 -30 -24 0 -47 -4 -50 -10 -3 -5 -27 -10
-53 -10 -26 0 -56 -6 -67 -13 -11 -7 -42 -21 -69 -31 -57 -22 -116 -71 -116
-97 0 -12 -7 -19 -21 -19 -13 0 -25 -11 -34 -35 -8 -19 -28 -48 -44 -64 -22
-23 -31 -43 -36 -85 -5 -34 -14 -61 -26 -72 -10 -9 -19 -23 -19 -31 0 -7 -4
-13 -10 -13 -5 0 -12 -10 -15 -22 -4 -13 -27 -36 -55 -52 -27 -17 -54 -42 -60
-57 -7 -15 -20 -29 -31 -32 -12 -3 -17 -11 -13 -20 3 -9 -7 -22 -31 -35 -19
-12 -40 -33 -45 -46 -5 -14 -28 -39 -51 -55 -37 -28 -67 -67 -85 -113 -3 -9
-16 -19 -28 -22 -11 -3 -29 -18 -38 -33 -9 -15 -32 -46 -52 -68 -19 -21 -38
-52 -41 -67 -4 -15 -13 -28 -21 -28 -8 0 -14 -4 -14 -10 0 -5 -16 -27 -35 -49
-19 -21 -35 -44 -35 -50 0 -6 -6 -11 -14 -11 -16 0 -46 -42 -46 -65 0 -9 -16
-29 -35 -46 -32 -28 -65 -80 -65 -101 0 -5 -14 -23 -30 -40 -17 -16 -30 -36
-30 -44 0 -9 -15 -30 -34 -48 -19 -18 -38 -45 -42 -62 -4 -16 -20 -47 -35 -68
-16 -22 -29 -50 -29 -63 0 -14 -16 -39 -40 -62 -22 -21 -40 -48 -40 -60 0 -12
-7 -24 -15 -27 -8 -4 -15 -13 -15 -21 0 -20 -27 -70 -51 -94 -11 -11 -19 -33
-19 -54 0 -19 -4 -35 -10 -35 -5 0 -10 -6 -10 -14 0 -8 -11 -23 -25 -34 -16
-13 -23 -26 -19 -36 3 -9 -1 -27 -10 -41 -9 -13 -16 -31 -16 -40 0 -8 -4 -15
-8 -15 -11 0 -30 -56 -36 -105 -3 -25 -13 -45 -26 -54 -12 -8 -20 -24 -20 -43
0 -22 -6 -31 -21 -35 -14 -4 -18 -11 -13 -22 17 -41 16 -60 -5 -73 -22 -14
-42 -68 -46 -128 -1 -19 -14 -73 -28 -119 -15 -50 -23 -96 -20 -113 3 -17 -1
-37 -11 -53 -10 -15 -15 -32 -13 -38 2 -7 0 -25 -5 -42 -11 -36 -15 -61 -24
-140 -4 -33 -11 -66 -16 -72 -7 -8 -7 -23 0 -42 8 -22 7 -44 -5 -88 -9 -36
-13 -80 -10 -115 3 -32 1 -58 -4 -58 -4 0 -7 -27 -5 -60 2 -33 -1 -63 -6 -66
-6 -4 -7 -20 -4 -38 15 -71 17 -107 7 -120 -7 -8 -11 -130 -13 -357 -2 -307 0
-349 16 -392 10 -27 15 -55 12 -64 -3 -8 3 -32 14 -53 11 -22 20 -51 20 -65 0
-14 5 -25 11 -25 6 0 8 -7 5 -16 -4 -9 0 -26 7 -38 8 -12 16 -40 20 -64 3 -24
12 -51 21 -61 9 -10 16 -27 16 -39 0 -12 9 -26 21 -32 12 -7 18 -18 15 -26 -7
-19 3 -44 19 -44 7 0 16 -12 20 -27 3 -16 14 -36 23 -46 9 -10 17 -27 19 -38
4 -29 33 -69 49 -69 8 0 14 -9 14 -20 0 -11 5 -20 10 -20 6 0 10 -6 10 -13 0
-7 15 -29 34 -49 18 -19 35 -39 37 -44 2 -5 20 -22 39 -37 90 -73 115 -94 145
-124 38 -38 98 -73 124 -73 10 0 21 -7 25 -15 6 -16 94 -75 113 -75 23 0 93
-35 93 -46 0 -6 -11 -21 -25 -34 -14 -13 -29 -38 -33 -54 -4 -17 -17 -35 -28
-40 -12 -5 -26 -21 -32 -35 -6 -14 -15 -33 -20 -41 -5 -8 -17 -31 -26 -50 -10
-19 -24 -46 -31 -60 -14 -28 -37 -97 -40 -120 -1 -8 -8 -28 -15 -45 -17 -42
-36 -165 -40 -260 -4 -107 -3 -112 9 -170 7 -31 8 -51 2 -53 -13 -4 -5 -107
14 -168 8 -27 15 -62 15 -77 0 -20 6 -30 18 -34 15 -3 19 -14 19 -48 0 -24 5
-50 11 -58 6 -7 22 -40 35 -73 21 -54 58 -129 90 -179 48 -78 94 -143 111
-163 12 -12 35 -39 53 -60 61 -70 227 -232 238 -232 7 0 20 -10 31 -21 25 -28
209 -149 226 -149 8 0 19 -5 26 -12 11 -11 142 -15 160 -4 5 3 13 31 17 62 8
64 -13 124 -44 124 -27 0 -92 35 -129 69 -19 17 -46 38 -61 45 -15 8 -61 51
-102 95 -50 54 -81 81 -96 81 -13 0 -23 6 -23 13 0 21 -64 116 -82 122 -10 4
-18 12 -18 20 0 7 -11 27 -25 43 -14 17 -25 36 -25 44 0 9 -11 27 -25 42 -14
15 -25 33 -25 41 0 16 -39 87 -53 96 -5 4 -7 11 -3 17 8 13 -20 96 -34 100 -5
2 -10 26 -10 53 0 28 -7 60 -15 73 -35 53 -19 497 20 561 6 11 15 33 19 49 11
46 87 197 102 203 7 2 18 20 24 38 7 21 23 40 41 50 16 8 42 22 59 31 16 8 32
19 35 24 22 36 234 88 333 82 13 -1 32 2 41 8 10 5 22 6 26 2 3 -4 25 -8 48
-9 23 -1 62 -6 87 -10 l45 -8 2 -60 c1 -33 4 -179 7 -325 3 -146 8 -292 11
-325 3 -33 8 -89 10 -125 2 -36 7 -82 10 -102 3 -21 1 -40 -6 -43 -6 -4 -7
-14 -3 -24 8 -20 13 -55 19 -149 3 -41 9 -81 14 -90 5 -9 7 -39 4 -67 -3 -30
1 -66 9 -90 8 -22 15 -65 17 -95 1 -30 6 -59 9 -65 4 -5 7 -33 8 -61 1 -28 6
-60 12 -70 5 -10 13 -53 17 -94 3 -41 12 -84 18 -95 6 -11 12 -27 13 -35 12
-82 24 -125 33 -128 6 -2 9 -13 6 -25 -3 -12 4 -51 15 -87 12 -36 24 -85 27
-110 3 -25 9 -50 14 -55 4 -6 13 -33 19 -60 7 -28 21 -65 31 -83 10 -17 16
-39 13 -47 -4 -8 1 -26 10 -40 9 -13 16 -35 16 -48 0 -12 5 -28 12 -35 7 -7 9
-12 4 -12 -4 0 0 -12 8 -28 8 -15 24 -58 36 -97 13 -38 31 -87 41 -109 11 -21
22 -56 25 -77 4 -22 10 -42 14 -44 4 -3 20 -31 35 -62 36 -78 42 -92 55 -134
6 -20 19 -44 29 -53 10 -9 24 -38 31 -64 7 -26 19 -54 26 -62 7 -8 17 -26 23
-40 6 -14 24 -47 41 -75 17 -27 42 -75 56 -105 14 -30 34 -60 45 -68 10 -7 19
-20 19 -29 0 -8 8 -27 18 -41 10 -15 21 -34 24 -43 8 -22 133 -209 158 -236
11 -12 20 -26 20 -31 0 -5 7 -16 16 -23 9 -7 30 -37 46 -66 16 -29 36 -53 43
-53 7 0 15 -11 19 -24 3 -13 26 -42 51 -65 25 -23 45 -45 45 -50 0 -4 14 -26
31 -47 43 -54 38 -88 -31 -227 -11 -20 -17 -43 -14 -50 2 -7 -4 -22 -16 -32
-11 -10 -20 -29 -20 -42 0 -12 -5 -23 -11 -23 -6 0 -8 -7 -5 -16 3 -8 -2 -30
-11 -47 -9 -18 -18 -42 -19 -55 -2 -13 -12 -42 -23 -66 -12 -23 -21 -62 -21
-87 0 -25 -5 -50 -12 -57 -7 -7 -11 -27 -10 -46 1 -19 -2 -37 -8 -41 -5 -3 -7
-17 -4 -30 3 -12 2 -25 -3 -28 -5 -3 -8 -42 -6 -86 2 -46 -1 -82 -7 -86 -15
-9 -13 -171 2 -195 10 -16 10 -24 0 -40 -16 -27 -15 -38 6 -65 14 -18 19 -44
20 -120 1 -53 7 -105 12 -115 6 -10 10 -30 10 -44 0 -14 5 -28 10 -31 6 -3 10
-20 10 -37 0 -17 9 -46 21 -64 11 -18 21 -48 23 -66 3 -37 5 -43 48 -146 17
-39 34 -72 39 -72 4 0 11 -15 15 -34 3 -19 21 -57 39 -84 18 -27 35 -62 39
-77 4 -15 16 -29 26 -32 11 -3 21 -9 21 -14 1 -5 2 -12 3 -16 0 -5 11 -22 24
-40 12 -17 22 -36 22 -42 0 -6 14 -20 30 -33 17 -12 30 -28 30 -36 0 -15 11
-27 164 -182 123 -125 171 -170 181 -170 7 0 73 -51 119 -92 17 -16 39 -28 49
-28 9 0 20 -7 23 -15 4 -10 13 -13 26 -9 14 4 24 -1 34 -15 9 -12 22 -21 30
-21 8 0 14 -5 14 -11 0 -5 15 -16 33 -24 19 -8 39 -21 47 -29 7 -9 20 -16 29
-16 9 0 25 -7 35 -15 11 -8 28 -15 39 -15 10 0 25 -7 34 -15 8 -8 18 -13 23
-10 4 3 31 -6 58 -20 27 -14 57 -25 66 -25 9 0 27 -7 40 -15 33 -22 174 -57
198 -49 11 3 27 0 36 -9 9 -8 37 -18 62 -22 25 -4 49 -10 54 -13 5 -3 38 -7
73 -8 35 -2 69 -7 76 -11 15 -9 24 -10 214 -18 108 -5 167 -4 175 3 7 5 45 9
83 7 42 -1 78 3 90 10 11 6 67 15 125 19 77 5 114 12 139 27 19 11 41 17 52
14 11 -4 19 -2 19 5 0 8 9 10 26 6 14 -4 32 -2 39 4 12 10 29 16 85 27 14 3
40 11 58 20 18 8 48 17 67 20 19 3 42 14 51 24 9 11 26 19 37 19 23 0 230 98
235 111 2 5 10 9 18 9 8 0 17 7 20 15 4 8 12 15 19 15 30 0 108 43 144 80 26
26 49 42 90 60 14 6 31 20 38 30 8 11 19 20 25 20 13 0 64 40 138 110 32 30
66 60 76 66 11 6 25 23 32 37 7 15 17 27 22 27 5 0 24 17 42 37 18 20 48 53
66 72 17 19 32 38 32 42 0 5 11 18 24 31 14 13 35 38 48 55 87 122 105 151
112 176 3 15 15 35 26 45 11 9 23 31 26 49 3 18 12 33 19 33 12 0 65 96 65
118 0 5 7 15 15 22 8 7 13 15 10 19 -2 4 5 20 16 37 10 16 19 42 19 57 0 16 9
40 20 54 11 14 20 38 20 52 0 15 9 44 20 66 11 22 20 52 20 67 0 15 5 30 10
33 6 3 10 21 10 40 0 19 5 37 10 40 6 3 10 21 10 39 0 17 4 36 9 41 15 16 22
91 26 285 l3 184 44 41 c46 42 64 55 171 123 20 13 37 28 37 32 0 15 100 111
109 106 5 -4 45 29 90 71 44 43 92 90 108 104 78 74 163 168 163 181 0 8 21
28 46 44 36 23 45 33 41 51 -3 18 0 23 17 23 21 0 106 91 106 114 0 6 18 30
40 54 22 23 40 49 40 57 0 8 9 19 21 25 16 9 19 17 14 40 -6 25 -2 30 30 46
20 9 39 24 43 33 3 9 15 25 27 36 24 22 39 53 36 73 -1 6 3 12 9 12 5 0 10 8
10 18 0 9 10 22 22 27 21 10 96 118 97 142 1 6 19 39 41 72 22 33 40 67 40 75
0 8 5 18 10 21 6 4 10 -6 10 -23 0 -16 8 -44 17 -63 9 -19 16 -46 15 -62 -1
-15 7 -47 18 -71 13 -30 18 -55 14 -75 -4 -20 -1 -39 10 -56 9 -13 16 -35 16
-48 0 -12 9 -40 20 -62 11 -22 20 -45 20 -53 0 -15 41 -123 71 -188 10 -22 19
-48 19 -57 0 -10 7 -20 15 -24 9 -3 22 -20 30 -37 8 -17 24 -44 35 -61 11 -16
29 -49 40 -72 11 -23 25 -45 30 -48 6 -3 10 -15 10 -26 0 -10 6 -19 14 -19 8
0 25 -17 37 -37 13 -21 31 -45 41 -55 10 -10 18 -24 18 -32 0 -7 14 -24 32
-37 45 -33 78 -69 78 -85 0 -7 14 -25 31 -41 18 -15 69 -64 114 -108 101 -99
225 -197 265 -210 17 -5 30 -15 30 -22 0 -7 7 -13 14 -13 8 0 27 -11 41 -24
14 -13 41 -31 59 -40 17 -8 50 -29 71 -46 21 -17 45 -28 53 -25 17 6 44 -8 76
-40 14 -14 36 -25 49 -25 14 0 30 -7 37 -15 7 -8 20 -15 29 -15 9 0 27 -7 39
-16 13 -9 26 -13 29 -10 4 3 13 0 22 -8 9 -7 47 -19 86 -25 49 -9 73 -18 83
-32 8 -11 20 -18 27 -15 19 7 95 -18 105 -35 5 -8 26 -15 50 -15 22 -1 47 -7
55 -14 8 -7 26 -9 43 -5 20 4 33 1 42 -10 17 -21 76 -20 88 2 9 16 12 16 36
-1 20 -13 54 -18 139 -21 61 -2 124 -8 138 -13 29 -11 240 0 299 16 19 5 80
17 135 27 55 10 111 24 125 31 14 7 48 15 75 19 54 7 109 22 137 36 10 5 26 9
36 9 21 0 118 35 135 48 7 5 23 13 37 17 14 4 63 25 110 47 169 77 184 88 410
293 47 42 240 247 284 301 14 18 26 37 26 43 0 17 43 101 52 101 4 0 8 8 8 19
0 10 6 24 14 30 8 7 18 26 21 42 4 16 11 31 16 34 5 3 26 41 46 83 39 80 40
82 42 107 0 8 8 15 16 15 9 0 18 8 22 18 14 40 64 142 73 147 6 3 10 15 10 25
0 10 15 45 34 77 19 32 37 76 41 98 4 22 15 49 25 60 10 11 20 36 23 55 9 60
27 120 43 145 9 13 13 29 9 35 -4 6 -2 16 3 23 5 7 15 35 21 62 7 28 16 66 21
85 24 92 32 129 40 175 4 28 15 77 24 110 8 33 15 76 16 96 0 20 7 50 16 67 8
18 12 37 8 44 -11 17 -5 80 9 97 7 8 13 35 14 60 3 109 17 242 24 247 4 2 3
18 -3 36 -9 24 -7 41 7 79 10 30 14 56 9 67 -4 9 -9 103 -10 207 -1 105 -6
219 -12 255 -7 50 -6 71 4 91 11 21 10 33 -2 68 -9 26 -12 57 -8 81 4 23 2 45
-4 53 -6 7 -14 54 -18 105 -4 51 -10 92 -15 92 -6 0 -9 20 -22 160 -6 64 -22
155 -28 155 -2 0 -6 31 -13 105 -6 52 -31 143 -48 166 -4 6 -2 16 4 22 8 8 9
21 0 49 -9 32 -35 155 -71 343 -5 25 -19 99 -30 165 -12 66 -23 129 -25 140
-2 11 -7 43 -11 70 -4 28 -13 59 -19 70 -6 11 -11 27 -12 35 -1 8 -8 38 -16
65 -9 28 -16 53 -17 58 -2 18 -15 67 -31 122 -10 33 -24 87 -31 120 -7 33 -18
67 -26 76 -7 8 -13 29 -13 45 0 16 -7 42 -15 58 -8 15 -15 40 -15 55 0 15 -8
54 -19 87 -10 32 -24 79 -31 104 -7 25 -16 54 -20 65 -9 21 -16 51 -30 125 -4
25 -17 78 -29 117 -11 40 -21 81 -21 90 0 10 -7 31 -15 47 -8 15 -15 49 -15
75 0 26 -4 51 -9 57 -5 5 -11 27 -14 49 -2 22 -12 69 -21 105 -9 36 -22 85
-28 110 -6 25 -17 66 -25 93 -13 38 -13 50 -3 62 10 12 10 19 2 27 -7 7 -12
26 -12 42 0 17 -7 44 -16 61 -8 16 -13 38 -10 49 3 11 0 29 -6 40 -7 12 -13
43 -15 70 -2 27 -7 65 -13 85 -5 20 -10 58 -10 84 0 40 -3 50 -20 54 -20 5
-28 23 -11 23 18 0 21 33 6 65 -10 19 -16 62 -17 106 -1 41 -5 79 -9 84 -4 6
-11 37 -14 70 -13 133 -21 184 -28 191 -4 4 -2 13 5 21 8 10 8 17 0 25 -7 7
-12 20 -12 30 0 10 -6 29 -14 41 -8 12 -14 44 -14 71 1 30 -3 51 -10 54 -8 2
-10 17 -6 43 4 23 2 44 -5 52 -6 8 -10 47 -10 89 0 42 -4 84 -9 94 -5 11 -12
60 -15 109 -2 50 -9 101 -14 115 -5 14 -9 62 -8 108 2 45 -1 85 -6 88 -5 3 -9
16 -9 29 0 13 -4 26 -8 29 -4 2 -9 48 -10 102 -2 53 -7 105 -12 115 -6 10 -10
49 -10 88 0 38 -4 72 -9 75 -4 3 -11 58 -15 123 -13 211 -36 419 -58 508 -7
28 -13 75 -14 105 -1 50 -9 106 -34 245 -5 28 -14 84 -19 125 -17 126 -20 144
-30 179 -6 19 -8 37 -6 42 3 4 0 20 -5 35 -6 15 -15 61 -21 103 -5 42 -14 85
-19 96 -5 11 -14 54 -20 94 -6 41 -22 107 -35 146 -14 39 -25 82 -25 96 0 13
-7 36 -14 51 -8 15 -22 59 -32 98 -9 39 -21 73 -25 76 -5 3 -9 18 -9 33 0 16
-7 34 -15 41 -8 7 -15 28 -15 47 0 19 -9 48 -20 63 -11 16 -18 35 -15 42 3 8
-1 21 -10 28 -8 7 -15 19 -15 26 0 8 -4 22 -9 32 -21 41 -51 110 -51 116 0 20
-232 475 -254 499 -14 15 -26 34 -26 41 0 7 -12 26 -27 42 -16 16 -35 41 -43
55 -21 36 -79 116 -115 158 -17 20 -39 49 -48 64 -10 15 -29 32 -43 37 -13 5
-24 16 -24 23 0 29 -160 213 -265 306 -16 14 -43 41 -60 59 -17 17 -35 32 -39
32 -4 0 -22 15 -41 33 -85 83 -135 127 -143 127 -5 0 -19 11 -32 25 -14 15
-30 23 -41 20 -11 -4 -18 1 -22 14 -2 11 -17 22 -33 25 -16 4 -48 24 -70 45
-23 21 -48 41 -55 44 -8 4 -43 23 -77 42 -35 19 -72 35 -82 35 -9 0 -23 7 -30
15 -16 20 -172 105 -191 105 -8 0 -33 9 -54 20 -22 12 -48 19 -58 16 -10 -2
-27 3 -37 11 -10 9 -36 18 -57 20 -23 2 -44 12 -54 24 -11 15 -22 19 -41 14
-15 -4 -29 -2 -32 4 -4 6 -20 11 -36 11 -16 0 -32 5 -35 10 -3 6 -21 10 -40
10 -19 0 -36 4 -39 9 -5 8 -123 29 -211 37 -22 2 -64 8 -94 14 -30 5 -76 10
-102 10 -25 0 -66 7 -90 15 -24 9 -55 13 -69 10 -14 -3 -32 -1 -39 4 -10 6
-22 6 -34 -1 -13 -7 -22 -7 -30 1 -15 15 -84 14 -90 -1 -3 -10 -7 -10 -18 -2
-24 19 -67 25 -76 12z m-1760 -2329 c37 -19 77 -70 77 -98 0 -15 5 -32 11 -38
9 -9 7 -23 -5 -55 -19 -47 -52 -79 -106 -104 -19 -9 -45 -21 -57 -27 -17 -8
-29 -7 -46 2 -13 7 -27 11 -33 10 -36 -11 -101 57 -111 115 -9 56 44 135 127
189 29 19 111 22 143 6z m524 -259 c47 -25 53 -35 53 -93 0 -89 -38 -141 -142
-195 -66 -34 -144 -36 -186 -5 -75 56 -81 154 -13 222 80 80 211 112 288 71z
m1193 -310 c14 0 31 5 38 12 9 9 15 9 24 0 7 -7 26 -12 43 -12 16 0 41 -7 55
-15 14 -8 34 -18 46 -24 32 -14 134 -111 134 -127 0 -8 5 -14 10 -14 6 0 10
-6 10 -14 0 -7 11 -21 25 -30 18 -12 25 -25 25 -48 0 -23 8 -38 27 -54 25 -20
26 -24 14 -47 -15 -28 -7 -67 15 -67 15 0 20 -33 15 -103 -2 -31 1 -38 15 -35
9 2 19 -3 21 -9 3 -8 -4 -13 -16 -13 -19 0 -20 -4 -15 -62 14 -156 15 -190 9
-206 -4 -9 -7 -42 -6 -72 1 -36 -3 -62 -13 -75 -20 -26 -20 -80 0 -110 13 -20
14 -28 4 -40 -7 -8 -16 -12 -21 -9 -6 3 -8 -25 -5 -67 2 -41 9 -75 15 -77 18
-6 12 -22 -8 -22 -29 0 -47 -28 -33 -50 12 -20 7 -50 -9 -50 -5 0 -6 -18 -3
-40 6 -34 3 -45 -16 -65 -15 -16 -21 -32 -18 -49 3 -15 -1 -31 -8 -37 -8 -6
-14 -20 -14 -30 0 -10 -4 -21 -10 -24 -5 -3 -8 -26 -6 -51 2 -24 -1 -47 -6
-50 -5 -4 -7 -17 -4 -30 5 -17 2 -26 -9 -30 -8 -3 -20 -25 -25 -48 -6 -22 -14
-48 -17 -56 -3 -8 -6 -36 -8 -62 -1 -35 2 -48 12 -48 7 0 13 -4 13 -10 0 -5
-9 -10 -20 -10 -11 0 -20 -4 -20 -9 0 -5 -7 -11 -16 -13 -11 -2 -17 -15 -19
-41 -1 -23 -11 -47 -25 -62 -20 -22 -21 -27 -10 -54 14 -34 8 -61 -14 -61 -8
0 -16 -15 -21 -37 -3 -21 -18 -55 -32 -77 -15 -23 -25 -53 -25 -73 0 -27 -5
-37 -19 -40 -12 -3 -19 -13 -17 -23 2 -9 -2 -23 -9 -31 -6 -8 -13 -27 -15 -44
-2 -18 -9 -30 -18 -30 -8 0 -16 -9 -18 -20 -2 -11 -15 -44 -29 -74 -21 -44
-24 -58 -14 -72 9 -15 8 -19 -4 -19 -8 0 -15 -7 -15 -15 0 -8 -9 -19 -20 -25
-17 -9 -20 -17 -15 -44 5 -25 3 -35 -9 -39 -9 -4 -16 -13 -16 -21 0 -9 -10
-32 -22 -53 -12 -21 -28 -50 -35 -65 -8 -15 -19 -30 -24 -34 -5 -3 -7 -14 -4
-25 4 -11 2 -19 -4 -19 -24 0 -51 -41 -51 -76 0 -28 -8 -43 -36 -70 -41 -38
-44 -39 -44 -21 0 7 -9 22 -19 34 -10 11 -26 35 -36 53 -9 18 -32 54 -51 80
-19 26 -34 51 -34 55 0 7 -26 41 -87 114 -18 21 -33 42 -33 47 0 12 -52 64
-64 64 -6 0 -20 19 -31 42 -11 23 -24 46 -30 52 -5 6 -28 34 -50 61 -21 28
-56 68 -77 90 -21 22 -38 43 -38 48 0 15 28 18 93 9 39 -5 73 -5 82 1 9 4 26
10 38 11 12 2 29 6 37 10 9 4 25 5 36 4 23 -4 163 62 164 77 0 6 9 18 20 28
12 10 20 29 20 46 0 30 0 30 -48 24 -36 -4 -56 -1 -74 11 -21 14 -41 15 -122
10 -53 -4 -99 -11 -102 -15 -3 -5 -16 -2 -29 7 -15 10 -45 15 -87 15 -63 -1
-140 6 -168 15 -16 6 115 74 142 74 9 0 20 5 23 10 3 6 13 10 22 10 9 0 44 18
79 40 35 22 67 40 72 40 5 0 46 23 92 50 46 28 85 50 88 50 7 0 127 85 130 93
2 4 10 7 17 7 13 0 105 95 105 109 0 3 -14 23 -31 44 -22 27 -36 36 -49 32
-10 -3 -28 -8 -41 -10 -12 -2 -30 -11 -39 -20 -10 -9 -30 -17 -44 -18 -15 -1
-31 -9 -36 -16 -4 -8 -14 -15 -22 -17 -68 -10 -137 -30 -157 -45 -13 -11 -30
-19 -38 -19 -8 0 -28 -9 -44 -21 -16 -11 -36 -18 -45 -15 -8 3 -22 2 -32 -3
-9 -5 -46 -21 -82 -36 -36 -15 -77 -34 -92 -41 -14 -8 -47 -17 -73 -21 -26 -3
-49 -12 -52 -19 -3 -9 -14 -12 -28 -8 -25 6 -81 -18 -87 -38 -4 -10 -8 -10
-22 1 -14 12 -18 12 -31 -5 -8 -10 -15 -22 -15 -26 -1 -20 -28 -2 -98 62 -42
39 -80 70 -85 70 -5 0 -37 25 -70 56 -34 31 -92 75 -128 100 -37 24 -72 51
-80 60 -7 8 -29 24 -48 35 -73 40 -126 72 -139 86 -7 7 -19 13 -27 13 -7 0
-31 15 -53 33 -22 17 -63 46 -91 62 -28 17 -51 33 -51 36 0 9 148 159 157 159
15 0 118 92 115 102 -1 6 7 12 18 15 11 3 20 10 20 16 0 18 43 57 63 57 10 0
35 16 55 36 20 20 62 57 92 81 30 25 72 65 94 89 21 24 44 44 51 44 7 0 19 7
26 16 7 9 23 20 36 25 14 5 23 17 23 29 0 13 7 20 19 20 11 0 42 22 68 48 26
27 56 51 66 55 9 3 17 16 17 27 0 14 7 20 23 20 33 0 67 28 67 54 0 29 10 39
26 25 18 -15 46 -3 42 17 -2 9 4 18 13 19 21 4 139 94 139 106 0 17 54 58 78
59 13 0 22 6 22 16 0 10 6 14 14 11 7 -3 26 8 42 24 15 16 34 29 41 29 8 0 16
6 19 14 3 8 19 19 35 25 16 5 29 17 29 26 0 11 6 15 18 11 12 -4 26 1 37 14
10 11 24 20 32 20 7 0 13 6 13 14 0 15 21 26 49 26 10 0 37 14 59 30 23 17 46
30 52 30 5 0 29 13 52 29 24 16 46 27 50 25 12 -8 88 38 88 52 0 9 10 11 33 7
24 -3 39 1 62 18 16 13 39 22 51 21 15 -2 23 3 27 20 5 18 9 20 19 10 6 -6 24
-12 38 -12z m-7193 -301 c8 -8 25 -8 57 -1 26 5 49 6 51 1 3 -4 27 -11 53 -14
26 -3 67 -14 92 -24 51 -21 89 -34 176 -62 34 -10 67 -26 73 -33 7 -8 27 -18
44 -21 18 -4 41 -15 52 -24 33 -27 63 -41 89 -41 14 0 38 -13 55 -31 21 -20
37 -28 49 -25 12 4 26 -2 38 -15 24 -26 61 -42 95 -40 21 1 28 -5 33 -24 4
-15 13 -25 25 -25 10 0 24 -7 31 -15 14 -17 40 -20 40 -5 0 6 4 10 9 10 4 0 6
-10 4 -22 -3 -18 4 -28 29 -42 18 -11 41 -18 50 -17 9 1 22 -7 28 -18 6 -12
19 -21 29 -21 11 0 21 -7 25 -15 3 -8 11 -15 19 -15 7 0 26 -13 41 -29 15 -16
44 -32 63 -36 22 -4 46 -19 65 -41 16 -19 36 -34 43 -34 8 0 20 -8 27 -17 16
-21 90 -73 104 -73 6 0 21 -12 35 -26 13 -14 45 -37 71 -50 26 -13 55 -35 64
-49 9 -14 22 -25 28 -25 6 0 27 -15 46 -34 19 -18 53 -42 75 -54 22 -11 72
-50 112 -86 39 -36 76 -66 81 -66 6 0 24 -20 41 -45 l30 -44 -32 -19 c-18 -11
-47 -27 -64 -36 -80 -40 -95 -49 -100 -62 -3 -8 -13 -14 -23 -14 -9 0 -25 -9
-35 -20 -10 -11 -23 -20 -29 -20 -6 -1 -27 -14 -46 -30 -19 -17 -38 -30 -42
-30 -4 0 -42 -26 -85 -58 -43 -33 -88 -64 -100 -71 -13 -6 -23 -18 -23 -27 0
-8 -12 -19 -27 -25 -14 -5 -44 -25 -65 -44 -21 -19 -47 -35 -58 -35 -11 0 -40
15 -65 34 -24 19 -55 37 -67 41 -13 3 -32 10 -43 15 -11 4 -36 14 -55 21 -19
8 -46 25 -60 39 -33 33 -90 66 -129 75 -17 4 -31 13 -31 21 0 8 -5 14 -11 14
-6 0 -27 14 -46 30 -18 17 -40 30 -48 30 -8 0 -15 5 -15 10 0 6 -11 10 -25 10
-18 0 -44 18 -84 58 -56 55 -145 112 -175 112 -8 0 -16 -6 -19 -14 -3 -8 -18
-16 -34 -18 -25 -3 -29 -8 -37 -51 -7 -35 -6 -54 2 -68 7 -10 12 -25 12 -32 0
-16 75 -97 89 -97 6 0 16 -11 23 -24 7 -14 47 -53 88 -87 41 -35 77 -66 78
-71 2 -4 10 -8 17 -8 8 0 33 -19 57 -41 24 -23 57 -47 74 -55 17 -7 36 -20 44
-28 7 -9 20 -16 30 -16 10 0 20 -8 23 -18 2 -11 17 -21 34 -25 34 -7 66 -34
57 -48 -3 -5 -33 -8 -67 -5 -45 3 -65 0 -76 -11 -13 -13 -16 -13 -30 5 -15 19
-29 21 -188 24 -94 2 -174 0 -177 -3 -3 -3 -9 -27 -12 -53 -6 -42 -5 -48 14
-53 12 -3 24 -13 27 -23 3 -10 18 -20 34 -23 15 -3 53 -17 83 -31 31 -14 81
-29 112 -32 31 -4 61 -13 67 -20 6 -8 17 -14 23 -14 6 0 17 -4 24 -9 11 -6 3
-22 -33 -70 -25 -33 -50 -61 -55 -61 -13 0 -41 -61 -33 -73 4 -6 1 -7 -6 -3
-14 9 -88 -65 -132 -133 -15 -24 -42 -59 -59 -77 -16 -18 -30 -37 -30 -42 0
-5 -9 -17 -20 -27 -11 -10 -20 -23 -20 -30 0 -6 -9 -21 -21 -33 -11 -13 -26
-37 -34 -56 -8 -18 -21 -39 -30 -46 -9 -8 -25 -31 -36 -52 -11 -21 -24 -38
-29 -38 -12 0 -22 36 -25 89 -1 33 -7 49 -26 64 -16 13 -23 27 -21 44 2 14 0
28 -5 32 -16 12 -33 50 -27 65 3 8 1 17 -5 21 -6 3 -11 13 -11 22 0 8 -9 26
-20 41 -14 17 -17 29 -11 35 15 15 -6 37 -35 37 -27 0 -33 25 -8 34 13 5 15
14 10 38 -9 47 -33 79 -52 71 -14 -5 -16 -1 -10 31 5 25 2 43 -7 57 -8 11 -13
29 -10 40 3 10 1 19 -3 19 -14 0 -46 91 -61 175 -3 17 -9 35 -13 40 -4 6 -11
25 -15 43 -4 18 -13 36 -21 39 -9 3 -12 13 -8 26 6 20 -12 93 -28 111 -4 6 -8
22 -8 37 0 15 -6 32 -14 38 -8 6 -17 28 -20 49 -11 66 -12 70 -23 84 -12 15
-22 60 -30 133 -3 28 -9 54 -14 60 -5 5 -9 30 -9 56 0 30 -6 51 -15 59 -11 9
-14 22 -10 40 3 14 -2 53 -11 86 -17 62 -23 123 -23 212 0 30 -5 60 -12 69 -9
10 -12 49 -11 125 2 103 1 112 -20 130 -16 14 -19 21 -10 27 8 5 14 43 16 107
3 54 5 99 6 99 0 0 3 22 5 49 5 49 12 77 49 179 20 56 53 87 91 87 7 0 15 7
19 15 6 18 18 19 33 4z m7593 -1429 c0 -5 -4 -10 -10 -10 -5 0 -10 5 -10 10 0
6 5 10 10 10 6 0 10 -4 10 -10z m-4190 -94 c0 -2 -11 -27 -25 -54 -14 -28 -25
-59 -25 -70 0 -12 -4 -24 -10 -27 -5 -3 -10 -15 -10 -25 0 -10 -9 -39 -20 -64
-20 -47 -36 -149 -44 -283 -3 -40 -9 -81 -14 -90 -9 -18 -2 -117 12 -160 4
-12 2 -24 -4 -28 -6 -3 -8 -11 -4 -16 3 -5 7 -28 9 -52 10 -110 39 -275 55
-312 4 -11 16 -47 25 -80 9 -33 27 -86 41 -118 13 -32 24 -69 24 -81 0 -13 6
-29 14 -35 8 -7 18 -27 22 -44 7 -32 77 -174 95 -191 5 -6 9 -16 9 -24 0 -8
24 -51 53 -95 29 -45 61 -99 72 -120 10 -21 27 -43 37 -48 10 -5 18 -18 18
-27 0 -16 30 -57 80 -108 11 -12 20 -25 20 -30 0 -5 20 -31 45 -58 44 -47 47
-48 87 -42 23 4 48 12 55 18 7 6 13 7 13 2 0 -5 7 0 15 10 19 25 19 53 0 90
-8 15 -15 37 -15 47 0 10 -4 21 -10 24 -5 3 -9 27 -8 53 1 26 -1 65 -5 87 -3
22 -11 72 -16 110 -6 39 -15 93 -21 120 -17 80 -19 95 -21 195 -1 52 -5 109
-9 125 -4 17 -1 113 6 215 19 261 21 279 39 349 8 34 13 66 10 71 -4 6 2 34
13 63 11 28 17 58 14 66 -3 8 2 28 10 45 19 39 38 98 38 117 0 14 23 75 64
174 7 17 23 55 36 85 35 86 43 100 52 100 4 0 8 -8 9 -17 9 -150 21 -260 34
-304 9 -31 10 -50 3 -57 -6 -6 -6 -16 0 -28 5 -11 10 -41 10 -67 0 -26 6 -54
12 -62 7 -8 10 -22 6 -30 -7 -20 22 -223 37 -255 6 -14 12 -29 13 -35 0 -5 4
-21 7 -35 4 -14 9 -48 11 -76 2 -28 12 -68 21 -89 8 -22 18 -65 22 -97 4 -36
11 -59 20 -62 9 -4 12 -13 8 -25 -3 -11 -1 -22 5 -26 5 -3 10 -21 10 -40 0
-19 5 -37 10 -40 6 -3 10 -21 10 -40 0 -19 5 -37 10 -40 6 -3 10 -19 10 -34 0
-16 9 -40 20 -54 11 -14 20 -31 20 -39 0 -7 11 -35 25 -63 13 -27 25 -57 25
-67 0 -9 15 -43 34 -77 19 -33 37 -69 41 -80 3 -12 13 -21 21 -21 8 0 14 -10
14 -23 0 -13 9 -33 21 -45 11 -13 26 -37 34 -56 8 -18 21 -38 29 -46 9 -7 16
-20 16 -30 0 -9 9 -25 20 -35 11 -10 20 -25 20 -34 0 -9 18 -40 40 -69 22 -29
40 -55 40 -58 0 -4 14 -22 30 -41 17 -18 30 -38 30 -43 0 -5 8 -11 18 -14 9
-3 27 -24 40 -46 12 -22 27 -40 32 -40 6 0 10 -6 10 -13 0 -7 14 -23 30 -35
17 -13 30 -29 30 -37 0 -8 4 -15 9 -15 5 0 12 -9 16 -19 3 -11 19 -26 35 -33
17 -7 30 -16 30 -20 0 -13 101 -128 112 -128 6 0 32 -22 57 -48 25 -26 57 -55
71 -64 14 -9 57 -42 95 -75 39 -32 86 -65 105 -73 19 -8 55 -30 80 -50 51 -42
91 -66 170 -105 60 -30 70 -35 115 -65 17 -11 34 -18 40 -17 5 2 19 -7 31 -20
12 -13 31 -23 44 -23 12 0 34 -9 49 -19 15 -11 45 -23 66 -27 22 -4 51 -15 64
-25 12 -10 39 -21 60 -25 20 -4 52 -15 71 -25 19 -10 49 -20 65 -22 17 -3 44
-9 60 -15 56 -19 101 -32 131 -37 191 -31 177 -26 194 -70 24 -63 38 -82 69
-98 48 -24 181 -6 181 24 0 6 6 9 13 6 6 -2 23 4 37 13 26 18 62 26 165 36 33
4 65 11 72 16 12 10 178 12 258 4 43 -5 91 -14 115 -23 8 -3 22 -7 30 -9 23
-4 89 -29 96 -37 4 -4 17 -7 28 -7 12 0 34 -13 49 -30 17 -17 39 -30 53 -30
13 0 24 -4 24 -9 0 -4 18 -21 40 -36 22 -15 40 -34 40 -42 0 -8 14 -20 30 -26
17 -6 30 -18 30 -26 0 -7 8 -21 18 -30 10 -9 21 -24 25 -33 3 -10 13 -18 22
-18 8 0 15 -8 15 -18 0 -10 24 -50 54 -88 32 -42 56 -85 60 -108 5 -25 14 -40
25 -43 13 -3 20 -17 24 -49 2 -25 12 -53 21 -63 9 -10 16 -31 16 -47 0 -16 5
-49 11 -74 17 -74 18 -239 2 -288 -8 -24 -12 -50 -9 -58 3 -8 0 -26 -6 -40 -9
-20 -9 -27 2 -34 11 -7 11 -12 -1 -32 -17 -27 -52 -140 -54 -175 0 -7 -6 -18
-13 -25 -6 -6 -12 -19 -12 -28 0 -8 -9 -23 -20 -33 -11 -9 -17 -23 -14 -30 3
-8 -2 -17 -10 -20 -10 -4 -16 -18 -16 -37 0 -20 -5 -30 -15 -30 -8 0 -26 -17
-40 -37 -13 -21 -38 -57 -55 -81 -16 -23 -30 -46 -30 -50 0 -4 -13 -16 -30
-25 -16 -10 -30 -22 -30 -27 0 -11 -40 -51 -66 -66 -11 -6 -24 -22 -31 -35
-11 -23 -44 -48 -88 -68 -11 -5 -33 -23 -49 -40 -17 -17 -36 -31 -44 -31 -8 0
-23 -11 -34 -25 -11 -14 -25 -25 -31 -25 -7 0 -29 -14 -49 -30 -21 -17 -58
-40 -83 -51 -36 -16 -45 -25 -45 -44 0 -22 -4 -25 -40 -25 -25 0 -55 -9 -78
-23 -60 -36 -74 -45 -122 -68 -25 -13 -51 -31 -58 -41 -7 -10 -20 -18 -28 -18
-8 0 -26 -8 -40 -17 -22 -14 -27 -14 -35 -2 -8 12 -12 11 -24 -5 -8 -11 -15
-29 -15 -41 0 -12 -4 -25 -8 -30 -14 -16 -32 -89 -32 -128 0 -20 -4 -39 -10
-42 -5 -3 -10 -15 -10 -26 0 -10 -4 -19 -9 -19 -5 0 -12 -15 -16 -32 -4 -18
-17 -64 -30 -103 -22 -69 -40 -157 -38 -184 1 -8 -9 -22 -21 -32 -12 -10 -28
-37 -35 -61 -7 -24 -18 -53 -23 -65 -6 -12 -10 -33 -10 -48 0 -15 -11 -38 -24
-52 -13 -14 -24 -34 -24 -43 0 -10 -7 -23 -15 -30 -8 -7 -15 -19 -15 -27 0 -8
-9 -28 -21 -44 -14 -20 -20 -40 -17 -59 3 -17 0 -28 -6 -27 -6 1 -10 -10 -9
-25 1 -20 -6 -33 -28 -48 -16 -12 -29 -29 -29 -38 0 -9 -16 -39 -35 -66 -19
-27 -35 -53 -35 -58 0 -4 -13 -30 -30 -56 -16 -27 -30 -59 -30 -70 0 -12 -9
-26 -20 -32 -12 -6 -20 -21 -20 -35 0 -14 -8 -29 -20 -35 -11 -6 -20 -17 -20
-26 0 -8 -6 -17 -14 -20 -8 -3 -20 -18 -26 -32 -23 -55 -85 -147 -143 -212 -8
-8 -24 -37 -37 -63 -13 -29 -32 -52 -46 -57 -17 -7 -24 -17 -24 -35 0 -15 -4
-24 -10 -20 -6 3 -13 -2 -16 -12 -20 -59 -30 -73 -51 -73 -14 0 -28 -10 -37
-27 -8 -16 -26 -38 -40 -50 -14 -13 -26 -27 -26 -32 0 -12 -281 -290 -385
-381 -47 -41 -85 -82 -85 -92 0 -13 -8 -18 -30 -18 -16 0 -33 -1 -37 -1 -9 -2
-21 50 -30 119 -3 23 -8 42 -12 42 -15 0 -42 61 -36 80 4 12 2 20 -5 20 -8 0
-10 9 -6 25 5 19 0 30 -18 46 -13 12 -27 36 -30 54 -4 18 -13 38 -21 45 -8 7
-15 21 -15 31 0 11 -5 19 -11 19 -6 0 -8 8 -4 19 3 11 1 22 -5 26 -5 3 -10 14
-10 23 0 9 -18 34 -41 55 -25 24 -38 44 -35 53 7 19 -21 64 -40 64 -8 0 -14 8
-14 19 0 10 -9 21 -20 24 -13 3 -20 14 -20 29 0 13 -9 29 -20 36 -11 7 -20 18
-20 25 0 7 -16 27 -35 44 -19 17 -35 38 -35 45 0 16 -93 103 -131 122 -15 8
-23 20 -22 33 2 13 -7 25 -25 34 -36 19 -72 60 -72 83 0 10 13 35 28 55 15 20
36 55 47 79 10 23 24 47 31 53 8 7 11 21 8 35 -4 14 -2 24 4 24 6 0 15 16 21
35 12 44 -9 112 -44 145 -21 20 -28 22 -50 12 -14 -7 -36 -12 -47 -12 -27 0
-118 -94 -118 -121 0 -11 -13 -37 -30 -60 -16 -22 -38 -59 -49 -82 -21 -43
-45 -70 -116 -130 -69 -59 -125 -84 -200 -93 -92 -10 -166 -11 -172 -1 -2 4
-13 7 -24 7 -10 0 -38 8 -62 19 -23 10 -58 24 -77 32 -48 17 -174 112 -201
152 -13 17 -29 36 -36 40 -7 4 -13 14 -13 22 0 8 -9 20 -20 27 -11 7 -20 18
-20 24 0 22 -44 100 -64 114 -20 14 -87 50 -93 50 -2 0 -3 -7 -3 -15 0 -9 -10
-19 -22 -24 -21 -8 -80 -71 -101 -108 -5 -8 -40 -45 -78 -83 -108 -108 -225
-154 -365 -144 -72 5 -115 13 -132 27 -7 6 -35 21 -63 33 -62 29 -139 109
-183 191 -25 46 -36 84 -45 155 -7 51 -20 108 -28 126 -14 32 -16 33 -65 30
-41 -2 -55 -8 -69 -28 -28 -38 -33 -142 -11 -227 23 -91 15 -118 -37 -127 -21
-3 -50 -15 -64 -26 -14 -11 -32 -20 -40 -20 -7 0 -34 -11 -58 -25 -24 -14 -51
-27 -59 -31 -65 -26 -92 -39 -98 -48 -4 -6 -23 -19 -42 -30 -59 -32 -140 -87
-140 -95 0 -4 -19 -18 -42 -31 -24 -13 -53 -33 -65 -44 -12 -12 -34 -30 -49
-41 -37 -27 -114 -106 -114 -116 0 -5 -6 -9 -13 -9 -17 0 -77 -59 -77 -76 0
-7 -8 -15 -18 -18 -11 -4 -25 -17 -32 -30 -7 -14 -21 -27 -31 -29 -11 -3 -19
-12 -19 -21 0 -9 -4 -16 -10 -16 -5 0 -10 -9 -10 -19 0 -11 -9 -23 -20 -26
-11 -3 -20 -12 -20 -19 0 -7 -9 -21 -20 -31 -10 -9 -18 -21 -17 -26 1 -5 -10
-17 -25 -26 -27 -17 -28 -17 -62 22 -19 22 -35 45 -36 50 0 6 -21 33 -47 60
-26 28 -61 73 -79 100 -18 28 -42 62 -53 77 -12 14 -21 30 -21 35 0 4 -18 27
-40 51 -22 23 -40 47 -40 53 0 18 -60 119 -71 119 -5 0 -9 9 -9 19 0 11 -11
32 -24 48 -13 15 -30 44 -38 63 -9 20 -29 50 -47 67 -17 17 -31 38 -31 46 0
19 -40 118 -55 137 -7 8 -20 33 -30 55 -9 22 -21 48 -26 58 -20 38 -27 53 -36
77 -6 14 -20 45 -32 68 -11 24 -21 50 -21 56 0 7 -8 21 -19 30 -10 9 -21 35
-25 56 -3 22 -17 59 -30 84 -13 24 -26 59 -30 78 -3 18 -12 44 -19 58 -7 14
-18 45 -26 70 -7 25 -21 63 -32 85 -10 22 -19 51 -19 64 0 23 -34 140 -50 172
-5 9 -12 34 -15 55 -8 47 -34 141 -46 169 -5 11 -16 61 -24 110 -8 50 -19 110
-25 135 -5 25 -12 57 -15 73 -2 15 -6 31 -9 36 -3 5 -8 46 -12 92 -3 46 -10
91 -15 100 -5 10 -9 32 -9 49 0 17 -4 40 -10 50 -5 10 -12 67 -15 127 -3 59
-8 121 -11 137 -3 15 -6 52 -5 82 0 29 -4 56 -8 59 -5 3 -10 101 -11 218 0
116 -1 217 -2 222 0 6 3 51 7 100 4 50 7 95 6 100 -4 21 -2 163 2 220 9 126
21 320 19 327 -1 4 5 36 12 70 13 55 18 99 30 233 1 17 7 39 13 50 6 11 8 25
6 32 -2 6 5 49 16 95 11 45 25 112 32 148 13 71 36 162 50 198 5 13 7 28 3 33
-3 5 2 23 10 41 9 17 16 41 16 54 0 13 5 26 10 29 6 3 10 19 10 35 0 16 5 32
10 35 6 3 10 15 10 26 0 10 8 38 18 62 22 49 38 98 47 147 4 19 18 53 31 76
13 22 24 51 24 63 0 12 11 43 25 69 14 26 25 53 25 60 0 7 10 32 23 55 12 23
28 60 36 82 7 22 26 69 43 105 30 64 34 74 56 118 7 12 16 31 22 41 5 11 28
55 51 98 23 43 55 103 71 133 16 30 38 64 49 76 10 11 19 24 19 28 0 4 14 27
30 51 17 24 30 49 30 55 0 13 42 68 85 111 16 15 23 32 20 41 -5 11 2 20 22
30 15 7 28 20 29 28 2 35 5 40 20 40 9 0 18 9 21 20 3 11 11 20 18 20 7 0 16
11 19 25 4 14 11 25 17 25 16 0 111 98 105 108 -3 5 3 17 14 27 11 10 20 24
20 31 0 7 16 22 35 34 19 12 35 25 35 29 0 3 14 12 30 18 28 11 43 43 19 43
-5 0 -7 5 -4 10 4 6 16 8 27 4 15 -5 31 7 71 52 29 31 54 66 57 77 6 22 18 30
65 44 17 5 30 16 30 24 0 18 22 42 48 52 9 4 27 23 38 42 15 25 26 34 38 30
11 -3 35 11 66 40 28 25 53 45 58 45 4 0 5 11 1 25 -4 15 -1 32 7 41 11 14 15
13 29 -7 l17 -22 42 42 c22 22 46 41 51 41 6 0 10 5 10 10 0 6 7 10 15 10 9 0
19 8 22 18 8 22 23 32 47 32 11 0 34 11 52 25 18 14 37 25 41 25 5 0 19 14 31
30 13 17 31 30 42 30 10 0 22 5 25 10 3 6 14 10 24 10 10 0 21 8 24 19 3 14
16 20 48 23 24 3 46 3 48 1 3 -2 -10 -18 -27 -36 -18 -18 -32 -37 -32 -41 0
-5 -20 -32 -45 -61 -24 -29 -49 -63 -55 -76 -10 -24 -39 -74 -78 -139 -35 -58
-99 -192 -112 -235 -7 -22 -19 -56 -26 -75 -19 -48 -54 -192 -65 -265 -28
-187 -30 -441 -4 -530 9 -31 13 -60 10 -65 -3 -4 0 -21 6 -37 6 -15 12 -41 14
-58 12 -95 19 -117 51 -150 18 -19 40 -35 48 -35 22 0 56 40 56 65 0 21 12 65
29 110 5 11 14 43 20 70 6 28 20 73 31 100 10 28 33 91 50 140 17 50 44 117
60 150 99 210 273 550 294 575 7 8 26 37 42 64 62 105 145 207 231 287 64 59
208 159 228 159 7 0 15 6 18 14 3 8 34 29 69 46 77 38 106 54 121 69 10 10 57
16 57 7z m-1830 -597 c0 -11 -4 -17 -10 -14 -5 3 -10 13 -10 21 0 8 5 14 10
14 6 0 10 -9 10 -21z m900 -6971 c0 -6 15 -26 33 -43 17 -18 40 -44 50 -58 10
-15 27 -27 37 -27 11 0 24 -9 30 -20 6 -11 18 -20 28 -21 9 0 31 -9 47 -19 17
-11 50 -29 75 -41 25 -11 52 -24 61 -29 9 -5 26 -6 37 -3 12 3 41 -3 66 -12
31 -12 59 -15 93 -11 26 3 64 8 83 10 79 10 143 27 168 44 15 10 44 26 65 36
20 9 44 28 53 42 9 13 24 24 33 24 14 1 75 67 101 110 7 12 13 10 32 -11 34
-37 68 -87 68 -98 0 -5 15 -21 33 -35 17 -14 46 -39 63 -56 17 -16 38 -30 47
-30 9 0 19 -4 22 -10 3 -5 15 -10 25 -10 11 0 24 -9 30 -20 6 -11 17 -20 26
-20 8 0 17 -7 20 -15 4 -8 11 -15 16 -15 6 0 24 -6 41 -14 46 -19 119 -41 137
-39 8 1 18 -3 21 -9 9 -14 162 -14 257 1 40 6 95 22 122 36 28 14 52 25 55 25
3 0 18 6 35 15 43 22 65 19 97 -15 15 -16 32 -30 38 -30 12 -1 115 -96 115
-107 0 -4 21 -23 45 -42 25 -18 45 -39 45 -47 0 -7 11 -23 24 -36 13 -13 45
-54 71 -93 26 -38 61 -85 78 -103 19 -20 32 -44 33 -62 1 -17 10 -42 20 -57
30 -45 82 -156 89 -188 3 -16 17 -52 30 -80 23 -48 35 -99 57 -235 6 -36 14
-74 19 -85 25 -59 25 -507 0 -553 -6 -10 -15 -59 -21 -108 -14 -111 -28 -164
-47 -186 -8 -9 -17 -36 -20 -60 -4 -24 -12 -52 -19 -63 -8 -11 -23 -50 -34
-85 -11 -36 -36 -90 -55 -121 -19 -31 -39 -67 -45 -80 -5 -13 -28 -51 -49 -84
-22 -33 -49 -77 -61 -98 -11 -20 -31 -50 -45 -65 -85 -96 -145 -168 -145 -175
0 -10 -49 -58 -128 -125 -34 -30 -62 -59 -62 -65 0 -14 -54 -52 -87 -61 -12
-4 -25 -16 -28 -26 -3 -10 -21 -24 -40 -30 -19 -6 -38 -17 -42 -24 -5 -7 -23
-21 -41 -31 -17 -11 -35 -27 -38 -37 -6 -19 -6 -19 -40 -23 -12 -1 -35 -11
-50 -22 -16 -11 -39 -24 -51 -27 -13 -4 -23 -14 -23 -23 0 -10 -6 -14 -19 -10
-12 3 -22 -1 -25 -9 -3 -8 -16 -14 -28 -14 -13 0 -39 -10 -58 -22 -34 -21 -52
-28 -195 -83 -38 -14 -83 -33 -98 -42 -16 -8 -38 -13 -49 -10 -11 3 -37 -3
-59 -14 -21 -12 -43 -18 -48 -14 -6 3 -34 -1 -62 -9 -28 -9 -55 -13 -59 -11
-5 3 -21 0 -37 -6 -38 -16 -98 -19 -521 -29 -51 -1 -131 5 -202 17 -25 4 -52
7 -60 8 -8 1 -22 4 -30 7 -20 8 -70 21 -95 24 -37 5 -123 29 -131 37 -4 4 -16
7 -27 7 -11 0 -49 14 -84 30 -34 16 -71 30 -81 30 -19 0 -131 54 -172 83 -13
9 -32 17 -41 17 -9 0 -19 7 -23 15 -3 8 -12 15 -19 15 -8 0 -20 6 -26 13 -6 8
-32 25 -58 38 -27 13 -56 34 -66 46 -10 12 -25 24 -35 27 -10 4 -51 37 -92 76
-41 38 -81 70 -87 70 -7 0 -24 18 -39 39 -14 21 -34 41 -44 44 -10 2 -26 21
-35 41 -10 20 -30 46 -46 57 -16 11 -29 27 -29 34 0 8 -9 19 -20 25 -11 6 -20
18 -20 26 0 9 -22 49 -50 89 -27 41 -58 92 -70 114 -11 23 -29 59 -40 81 -11
21 -20 43 -20 48 0 4 -13 35 -30 67 -16 32 -30 69 -30 81 0 13 -4 26 -10 29
-5 3 -10 19 -10 35 0 16 -4 31 -9 34 -8 6 -14 31 -27 119 -4 20 -10 37 -14 37
-4 0 -13 66 -20 147 -14 155 -7 439 11 523 6 25 14 65 19 90 35 173 51 232 71
265 4 6 10 26 14 45 9 43 67 171 95 209 11 16 20 38 20 49 0 10 9 31 20 45 11
14 20 29 20 35 0 5 9 17 20 27 11 10 20 22 20 27 0 5 14 29 30 53 17 24 30 48
30 54 0 6 4 11 9 11 4 0 38 39 73 88 95 128 305 335 418 413 19 13 45 34 58
46 12 12 43 35 70 50 26 15 68 42 94 60 26 18 62 39 80 47 18 9 40 20 48 25
16 9 99 47 140 63 14 6 32 14 40 19 22 12 50 11 50 -3z"/>
<path d="M10524 7560 c-35 -35 -49 -54 -46 -63 1 -5 -7 -11 -18 -14 -11 -3
-20 -13 -20 -22 0 -9 -5 -22 -11 -28 -16 -16 -17 -104 -1 -138 8 -16 30 -45
49 -63 l36 -33 33 32 c19 18 34 38 34 43 0 6 9 22 20 36 11 14 20 34 20 44 0
11 10 30 22 43 17 18 21 36 22 85 1 56 -1 63 -18 61 -10 0 -34 7 -53 18 -42
24 -45 24 -69 -1z"/>
<path d="M11387 7483 c-51 -81 -43 -189 19 -250 18 -18 36 -33 39 -33 17 0 69
61 92 108 20 42 27 70 27 119 0 35 -5 68 -12 75 -7 7 -41 14 -77 15 l-64 4
-24 -38z"/>
<path d="M13040 7188 c-19 -23 -42 -60 -51 -83 -8 -22 -21 -39 -27 -38 -8 2
-8 -6 0 -28 5 -16 8 -42 5 -57 -7 -33 23 -122 40 -122 7 0 13 5 13 10 0 6 10
10 22 10 32 0 94 47 112 85 9 18 20 35 25 37 20 7 61 109 61 150 l0 44 -58 17
c-86 25 -102 23 -142 -25z"/>
<path d="M12197 7197 c-1 -4 -27 -14 -57 -20 l-55 -12 2 -45 c1 -61 18 -98 48
-110 14 -5 25 -14 25 -20 0 -6 18 -10 43 -10 23 1 54 -1 69 -5 43 -11 136 22
153 55 8 15 21 30 30 33 8 4 15 15 15 25 0 10 7 27 15 38 20 27 18 44 -5 44
-11 0 -37 7 -58 16 -40 17 -220 26 -225 11z"/>
<path d="M10740 7037 c0 -11 -8 -17 -22 -17 -59 0 -66 -8 -63 -65 4 -58 21
-95 45 -95 9 0 21 -5 28 -12 7 -7 12 -8 12 -3 0 4 9 0 20 -10 20 -18 21 -17
60 23 22 24 49 42 60 42 17 0 20 4 15 19 -4 13 0 23 12 30 26 14 8 38 -50 70
-42 22 -50 24 -69 12 -19 -12 -23 -11 -35 5 -12 16 -13 16 -13 1z"/>
<path d="M10260 6845 c-19 -14 -39 -25 -45 -25 -18 0 -96 -71 -90 -81 3 -5 1
-17 -5 -28 -5 -11 -13 -45 -15 -76 l-6 -55 55 0 c30 0 58 5 61 10 3 6 13 10
21 10 27 0 162 100 183 136 l21 35 -35 44 c-23 27 -46 45 -66 49 -43 8 -41 9
-79 -19z"/>
<path d="M11638 6835 c-1 -2 -43 -6 -92 -9 -49 -4 -94 -10 -100 -14 -18 -12
-80 -32 -98 -32 -10 0 -22 -9 -28 -20 -6 -11 -21 -20 -35 -20 -13 0 -27 -4
-30 -10 -3 -5 -15 -10 -27 -10 -11 0 -34 -12 -52 -26 -58 -49 -136 -123 -136
-129 0 -4 -18 -27 -40 -52 -22 -25 -40 -51 -40 -58 0 -6 -9 -20 -20 -30 -11
-10 -20 -31 -20 -46 0 -15 -4 -30 -9 -33 -13 -8 -47 -84 -55 -121 -19 -85 -22
-123 -19 -231 1 -65 7 -122 13 -128 5 -5 10 -25 10 -42 0 -18 5 -36 10 -39 6
-3 10 -19 10 -35 0 -40 12 -67 69 -157 48 -76 140 -192 152 -193 4 0 26 -18
49 -39 24 -22 64 -47 89 -57 25 -9 52 -22 60 -28 7 -6 27 -16 45 -22 17 -7 56
-21 86 -33 30 -12 65 -21 77 -21 12 0 24 -4 27 -8 7 -11 220 -4 266 8 19 6 47
10 62 10 25 0 136 44 178 71 8 5 25 13 38 19 12 5 22 14 22 19 0 5 13 14 30
19 16 6 41 22 55 36 14 15 30 26 35 26 5 0 17 16 26 35 9 20 30 43 45 51 16 8
29 19 29 25 0 6 11 24 25 41 14 16 25 41 25 54 0 14 6 27 14 30 7 3 19 24 26
47 8 23 21 53 30 67 10 14 20 41 23 60 4 19 11 57 17 85 11 55 4 253 -11 292
-5 13 -9 41 -9 62 0 24 -8 47 -20 61 -11 13 -20 29 -20 36 0 7 -8 28 -18 46
-10 18 -22 45 -26 61 -3 15 -11 27 -16 27 -5 0 -17 17 -25 38 -9 20 -28 49
-43 64 -15 14 -47 49 -72 77 -38 44 -48 51 -71 46 -15 -4 -30 -1 -34 4 -11 18
-54 12 -67 -9 -7 -11 -24 -20 -38 -20 -34 -1 -62 -23 -54 -44 3 -9 10 -16 15
-16 5 0 9 -15 9 -32 0 -27 10 -41 52 -78 80 -70 128 -117 128 -125 0 -5 11
-23 25 -41 14 -18 25 -36 25 -40 0 -4 9 -28 21 -53 11 -25 26 -59 34 -76 8
-19 13 -62 12 -120 l-2 -90 -137 -1 c-75 -1 -144 -4 -153 -8 -9 -3 -22 -3 -28
1 -16 10 -25 11 -182 27 -77 8 -171 22 -210 31 -38 9 -101 21 -139 26 -38 5
-88 18 -112 29 -23 11 -49 20 -57 20 -23 0 -121 32 -137 45 -8 7 -32 18 -53
25 -41 13 -57 34 -38 53 6 6 11 20 11 32 0 12 4 25 8 31 5 5 15 25 22 44 8 19
23 48 34 64 31 44 208 216 222 216 6 0 38 12 70 26 119 53 237 63 418 34 83
-13 126 -6 126 20 0 10 5 22 10 25 6 3 10 17 10 30 0 27 -39 51 -120 74 -25 8
-52 16 -60 18 -18 6 -137 13 -142 8z m-543 -985 c22 -7 57 -21 78 -31 22 -11
59 -19 84 -19 30 0 53 -7 70 -20 14 -11 36 -20 49 -20 12 0 25 -4 28 -9 3 -5
20 -11 38 -14 18 -4 58 -11 88 -17 30 -6 73 -13 95 -16 22 -3 49 -9 60 -14 27
-12 287 -32 388 -29 77 2 82 1 85 -19 2 -14 -2 -22 -12 -22 -8 0 -19 -6 -23
-14 -12 -20 -140 -126 -153 -126 -6 0 -37 -13 -68 -29 -31 -16 -84 -35 -117
-41 -33 -7 -72 -17 -87 -22 -15 -6 -45 -7 -65 -4 -38 7 -87 14 -133 20 -55 7
-199 77 -257 125 -18 14 -48 39 -67 55 -23 19 -54 66 -87 130 -28 56 -56 107
-61 113 -13 16 -2 47 15 40 6 -2 30 -10 52 -17z"/>
<path d="M12820 6320 c0 -10 -7 -31 -16 -47 -15 -26 -14 -31 5 -73 14 -32 31
-51 58 -65 21 -10 57 -32 81 -47 37 -24 53 -28 112 -28 60 0 73 3 96 25 21 20
25 28 16 37 -7 7 -12 19 -12 28 0 25 -67 97 -124 134 -60 38 -92 48 -163 51
-45 2 -53 0 -53 -15z"/>
<path d="M10160 6000 c0 -6 -11 -16 -25 -22 -14 -6 -32 -22 -40 -35 -14 -20
-14 -29 -3 -61 26 -78 82 -143 153 -180 41 -21 135 -36 135 -21 0 4 9 11 20
14 25 8 26 37 4 101 -19 58 -140 179 -198 200 -46 17 -46 17 -46 4z"/>
<path d="M13030 5521 c-56 -11 -94 -34 -101 -61 -4 -14 -7 -57 -8 -95 -1 -41
-6 -76 -13 -83 -9 -9 -8 -15 4 -24 9 -7 19 -26 22 -41 4 -17 16 -31 31 -37 16
-6 25 -17 25 -31 0 -17 4 -20 24 -15 15 4 28 0 36 -9 18 -22 50 -19 50 4 0 11
5 23 10 26 6 3 10 24 10 46 0 22 5 50 11 61 8 15 8 27 0 46 -8 17 -9 28 -1 36
11 11 14 96 2 96 -7 0 -21 29 -36 73 -6 18 -11 19 -66 8z"/>
<path d="M10028 5487 c-16 -6 -28 -17 -28 -24 0 -7 -9 -17 -19 -23 -29 -15
-68 -199 -48 -219 5 -5 10 -21 10 -36 0 -18 6 -29 22 -35 12 -5 25 -20 29 -34
8 -33 26 -33 56 -1 13 14 29 25 36 25 6 0 17 14 24 30 7 17 16 30 20 30 21 0
62 161 54 212 -9 56 -19 68 -60 68 -18 0 -36 5 -39 10 -7 12 -21 11 -57 -3z"/>
<path d="M10855 5150 c-3 -5 -11 -7 -18 -4 -7 2 -32 -9 -56 -27 -32 -22 -40
-34 -32 -42 6 -6 11 -27 11 -47 0 -52 45 -85 124 -93 45 -4 116 25 116 48 0 8
11 22 25 31 14 9 25 21 25 28 0 6 7 24 15 40 9 16 14 30 13 31 -2 1 -23 7 -48
14 -25 7 -53 17 -62 22 -23 12 -105 12 -113 -1z"/>
<path d="M12366 5142 c-78 -2 -89 -5 -93 -22 -3 -12 -14 -20 -27 -20 -38 -1
-57 -23 -50 -61 11 -59 29 -76 89 -89 82 -17 150 6 203 69 88 104 63 130 -122
123z"/>
<path d="M11365 4750 c-4 -6 -21 -10 -39 -10 -22 0 -40 -9 -59 -28 -15 -16
-24 -31 -21 -35 3 -3 2 -20 -4 -36 -9 -25 -7 -39 8 -73 23 -51 93 -123 110
-113 6 4 27 -1 46 -11 43 -23 49 -16 58 66 9 82 -2 138 -38 192 -32 49 -51 64
-61 48z"/>
</g>
</svg>
