<?xml version="1.0" standalone="no"?>
<!DOCTYPE svg PUBLIC "-//W3C//DTD SVG 20010904//EN"
 "http://www.w3.org/TR/2001/REC-SVG-20010904/DTD/svg10.dtd">
<svg version="1.0" xmlns="http://www.w3.org/2000/svg"
 width="384.000000pt" height="384.000000pt" viewBox="0 0 384.000000 384.000000"
 preserveAspectRatio="xMidYMid meet">

<g transform="translate(0.000000,384.000000) scale(0.100000,-0.100000)"
fill="#000000" stroke="none">
<path d="M1378 2618 l-3 -373 -30 0 c-26 -1 -30 -4 -33 -33 -3 -29 -6 -32 -38
-32 l-34 0 0 -70 0 -70 -35 0 -35 0 0 -65 0 -65 -30 0 -30 0 0 -135 0 -135
-35 0 -35 0 0 -99 0 -100 -32 -3 -33 -3 -3 -167 -2 -168 35 0 c33 0 35 -2 35
-35 l0 -35 64 0 65 0 3 33 c3 28 7 32 36 35 l32 3 0 65 0 64 35 0 35 0 0 70 0
70 36 0 c34 0 35 1 32 33 -3 30 -1 32 30 35 31 3 32 2 32 -32 l0 -36 70 0 70
0 0 -35 c0 -33 2 -35 35 -35 l35 0 0 -200 0 -200 30 0 c28 0 30 -3 30 -35 l0
-35 106 0 106 0 -4 32 c-3 31 -1 33 30 36 l32 3 0 100 0 99 35 0 35 0 0 65 0
65 100 0 100 0 0 35 0 35 105 0 105 0 0 -35 c0 -32 2 -35 30 -35 27 0 30 -3
30 -30 0 -28 3 -30 35 -30 33 0 35 -2 35 -35 l0 -34 68 -3 67 -3 3 -32 3 -33
65 0 64 0 0 35 c0 33 2 35 35 35 l35 0 0 65 0 65 -35 0 -35 0 0 70 0 70 -35 0
-35 0 0 64 0 65 -31 3 -32 3 -1 65 -1 65 -32 3 c-30 3 -33 6 -33 38 0 32 2 34
36 34 35 0 36 1 32 30 -4 28 -3 30 29 30 l33 0 -2 237 -3 237 -28 1 -28 0 -2
235 -2 235 -100 0 -100 0 -3 -32 c-3 -29 -7 -33 -32 -33 -25 0 -29 -4 -32 -32
l-3 -33 -134 0 -134 0 -1 65 -1 65 -32 3 c-29 3 -33 7 -33 33 l0 29 -100 0
-100 0 0 -30 c0 -28 -3 -30 -35 -30 l-35 0 0 -70 0 -70 -35 0 -35 0 0 -135 0
-135 -35 0 -35 0 0 135 0 135 -30 0 -30 0 0 135 0 135 -35 0 -35 0 0 70 0 70
-100 0 -100 0 -2 -372z m872 -474 l0 -105 -31 3 -31 3 1 98 c0 53 0 99 1 102
0 3 14 5 30 5 l30 0 0 -106z m340 1 l0 -105 -35 0 -35 0 0 98 c0 54 3 102 7
105 3 4 19 7 35 7 l28 0 0 -105z"/>
</g>
</svg>
